<svg xmlns="http://www.w3.org/2000/svg" viewBox="0 0 504.124 504.124"><path d="M23.631 98.462h456.862c12.997 0 23.631 10.634 23.631 23.631v259.938c0 12.997-10.634 23.631-23.631 23.631H23.631C10.634 405.662 0 395.028 0 382.031V122.092c0-12.997 10.634-23.63 23.631-23.63z" fill="#efefef"/><path d="M441.108 169.354H283.569c-8.665 0-15.754 7.089-15.754 15.754v23.631c0 8.665 7.089 15.754 15.754 15.754h157.538c8.665 0 15.754-7.089 15.754-15.754v-23.631c.001-8.665-7.089-15.754-15.753-15.754zm-220.554 0H63.015c-8.665 0-15.754 7.089-15.754 15.754v23.631c0 8.665 7.089 15.754 15.754 15.754h157.538c8.665 0 15.754-7.089 15.754-15.754v-23.631c.001-8.665-7.089-15.754-15.753-15.754z" fill="#ccd0d2"/><path d="M366.277 271.754c19.692 0 35.446 15.754 35.446 35.446s-15.754 35.446-35.446 35.446-35.446-15.754-35.446-35.446 15.754-35.446 35.446-35.446z" fill="#e2574c"/><path d="M421.415 271.754c19.692 0 35.446 15.754 35.446 35.446s-15.754 35.446-35.446 35.446-35.446-15.754-35.446-35.446 15.754-35.446 35.446-35.446z" fill="#f4b459"/><path d="M224.492 275.692H59.077c-6.695 0-11.815 5.12-11.815 11.815s5.12 11.815 11.815 11.815h165.415c6.695 0 11.815-5.12 11.815-11.815.001-6.301-5.119-11.815-11.815-11.815zM153.6 315.077H59.077c-6.695 0-11.815 5.12-11.815 11.815s5.12 11.815 11.815 11.815H153.6c6.695 0 11.815-5.12 11.815-11.815 0-6.301-5.12-11.815-11.815-11.815z" fill="#ccd0d2"/></svg>